<svg xmlns="http://www.w3.org/2000/svg" xmlns:xlink="http://www.w3.org/1999/xlink" width="150pt" height="149.999998pt" viewBox="0 0 150 149.999998" version="1.2">
<g id="surface1">
<path style=" stroke:none;fill-rule:nonzero;fill:rgb(23.529053%,70.199585%,44.309998%);fill-opacity:1;" d="M 0 75 C 0 33.585938 33.585938 0 75 0 C 116.414062 0 150 33.585938 150 75 C 150 116.414062 116.414062 150 75 150 C 33.585938 150 0 116.414062 0 75 Z M 0 75 "/>
<path style=" stroke:none;fill-rule:nonzero;fill:rgb(100%,100%,100%);fill-opacity:1;" d="M 110.15625 89.296875 L 110.15625 102.660156 L 42.078125 102.660156 L 42.078125 89.359375 C 42.078125 83.617188 33.191406 83.585938 33.191406 89.296875 L 33.191406 107.074219 C 33.191406 108.3125 33.617188 109.25 34.25 109.945312 C 34.945312 110.882812 36.0625 111.546875 37.605469 111.546875 L 114.570312 111.546875 C 115.808594 111.546875 116.746094 111.125 117.441406 110.488281 C 118.378906 109.792969 119.042969 108.675781 119.042969 107.132812 L 119.042969 89.359375 C 119.042969 83.617188 110.15625 83.585938 110.15625 89.296875 "/>
<path style=" stroke:none;fill-rule:nonzero;fill:rgb(100%,100%,100%);fill-opacity:1;" d="M 96.039062 59.21875 L 81.410156 59.21875 L 81.410156 37.0625 C 81.410156 28.445312 68.078125 28.386719 68.078125 36.972656 L 68.078125 59.21875 L 54.019531 59.21875 C 53.929688 59.21875 53.839844 59.21875 53.777344 59.25 C 52.871094 59.339844 52.265625 59.886719 51.996094 60.582031 C 51.664062 61.277344 51.664062 62.121094 52.265625 62.847656 C 52.328125 62.9375 52.417969 63.027344 52.507812 63.121094 L 73.457031 84.070312 C 74.304688 84.914062 75.753906 84.914062 76.601562 84.039062 C 83.617188 77.023438 90.597656 70.011719 97.613281 63.027344 C 98.941406 61.667969 97.945312 59.21875 96.039062 59.21875 "/>
</g>
</svg>