<svg xmlns="http://www.w3.org/2000/svg" id="Icons" height="512" viewBox="0 0 74 74" width="512" style="&#10;    fill: #fff;&#10;"><path d="m17.349 65.75a.993.993 0 0 1 -.576-.184c-.837-.591-1.633-1.212-2.433-1.9a1 1 0 0 1 1.3-1.52c.753.644 1.5 1.227 2.287 1.784a1 1 0 0 1 -.578 1.816z"/><path d="m37 72a34.781 34.781 0 0 1 -13.691-2.78 1 1 0 1 1 .783-1.84 33 33 0 1 0 12.908-63.38 33.014 33.014 0 0 0 -30.934 44.51 1 1 0 0 1 -1.873.7 35 35 0 1 1 67.807-12.21 35 35 0 0 1 -35 35z"/><path d="m10.15 58.85a1 1 0 0 1 -.784-.379c-.6-.757-1.178-1.561-1.771-2.461a1 1 0 0 1 1.67-1.1c.56.85 1.106 1.609 1.669 2.319a1 1 0 0 1 -.784 1.621z"/><path d="m47.5 55.6a1 1 0 0 1 -.485-.126l-17.94-9.974a1 1 0 0 1 -.514-.874v-15.252a1 1 0 0 1 .514-.874l17.94-9.972a1 1 0 0 1 1.485.872v35.2a1 1 0 0 1 -1 1zm-16.939-11.562 15.939 8.862v-31.8l-15.939 8.86z"/><path d="m29.561 45.626h-7.871a3.35 3.35 0 0 1 -3.346-3.347v-10.558a3.35 3.35 0 0 1 3.346-3.347h7.871a1 1 0 0 1 1 1v15.252a1 1 0 0 1 -1 1zm-7.871-15.252a1.348 1.348 0 0 0 -1.346 1.347v10.558a1.348 1.348 0 0 0 1.346 1.347h6.871v-13.252z"/><path d="m47.5 43.5a1 1 0 0 1 0-2 4.5 4.5 0 0 0 0-9 1 1 0 0 1 0-2 6.5 6.5 0 0 1 0 13z"/><path d="m61.042 62.042a1 1 0 0 1 -.708-.293l-48.083-48.083a1 1 0 0 1 1.415-1.415l48.083 48.083a1 1 0 0 1 -.707 1.708z"/></svg>